# xmcd CD database file
#
# Track frame offsets:
#	300
#	18027
#	37281
#	54210
#	80266
#	99493
#	120854
#	137948
#	156367
#	172728
#	191842
#	220700
#	241650
#
# Disc length: 3519 seconds
#
# Revision: 1
# Processed by: cddbd v1.5.2PL0 Copyright (c) Steve Scherf et al.
# Submitted via: CDex 1.51
#
DISCID=9e0dbb0d
DTITLE=Innocent key - TOHO innocent Beat!!
DYEAR=2012
DGENRE=東方アレンジ
TTITLE0=Star←Sweetest→Pororoca feat.ココ、大瀬良あい
TTITLE1=Hakurei wonder girl feat.めらみぽっぷ
TTITLE2=煉獄クオリア feat.真野紫
TTITLE3=Lilium feat.紫咲ほたる
TTITLE4=Animus Control feat.Nimo、大瀬良あい
TTITLE5=Collapse Game feat.yuiko
TTITLE6=キョンシー☆パラダイス feat.大瀬良あい、梨本悠里
TTITLE7=フランちゃんのお遊戯地獄 feat.ココ
TTITLE8=Falsehood myth feat.真野紫
TTITLE9=Rabbit Panic!!　～兎的マイライフ～ feat.ゆきまめ
TTITLE10=Morning after the Party feat.ほたる
TTITLE11=孤高のUNDERGROUND STAR feat.コツキミヤ
TTITLE12=silky snow feat.真野紫
EXTD=YEAR: 2012
EXTT0=
EXTT1=
EXTT2=
EXTT3=
EXTT4=
EXTT5=
EXTT6=
EXTT7=
EXTT8=
EXTT9=
EXTT10=
EXTT11=
EXTT12=
PLAYORDER=
